<svg xmlns="http://www.w3.org/2000/svg" width="1024" height="1024" viewBox="0 0 1024 1024">
  <defs>
    <linearGradient id="bg" x1="0" y1="0" x2="0" y2="1">
      <stop offset="0" stop-color="#141a2b"/>
      <stop offset="1" stop-color="#0b0f1a"/>
    </linearGradient>
    <linearGradient id="shield" x1="0" y1="0" x2="1" y2="1">
      <stop offset="0" stop-color="#3b82f6"/>
      <stop offset="1" stop-color="#6366f1"/>
    </linearGradient>
    <linearGradient id="gloss" x1="0" y1="0" x2="0" y2="1">
      <stop offset="0" stop-color="#ffffff" stop-opacity="0.22"/>
      <stop offset="0.5" stop-color="#ffffff" stop-opacity="0"/>
    </linearGradient>
    <filter id="soft" x="-20%" y="-20%" width="140%" height="140%">
      <feDropShadow dx="0" dy="18" stdDeviation="26" flood-color="#000000" flood-opacity="0.45"/>
    </filter>
  </defs>
  <rect x="0" y="0" width="1024" height="1024" rx="228" fill="url(#bg)"/>
  <rect x="2" y="2" width="1020" height="1020" rx="226" fill="none" stroke="#ffffff" stroke-opacity="0.06" stroke-width="4"/>
  <g filter="url(#soft)">
    <path d="M512 196
             L760 300
             L760 512
             C760 656 656 772 512 828
             C368 772 264 656 264 512
             L264 300 Z"
          fill="url(#shield)"/>
    <path d="M512 196 L760 300 L760 420 C760 300 620 236 512 236 C404 236 264 300 264 420 L264 300 Z"
          fill="url(#gloss)"/>
    <path d="M420 512 L484 582 L620 430"
          fill="none" stroke="#ffffff" stroke-width="52" stroke-linecap="round" stroke-linejoin="round"/>
  </g>
</svg>
